<svg xmlns="http://www.w3.org/2000/svg" viewBox="0 0 274.74 130.62"><g id="Layer_2" data-name="Layer 2"><g id="Layer_1-2" data-name="Layer 1"><path d="M.93,116.46l9.45-3.54-7.44-6.74,1-4.85,11.3,10.33,8.4,1.65-.84,4.24-8.39-1.64L0,121.22Z"/><path d="M22.8,81.66A10.82,10.82,0,0,1,29.27,96a10.87,10.87,0,0,1-14.49,6.35,11.11,11.11,0,1,1,8-20.71Zm-1.56,4c-3.86-1.49-7.74,0-9.15,3.71s.39,7.44,4.25,8.94,7.62-.07,9.06-3.79A6.71,6.71,0,0,0,21.24,85.69Z"/><path d="M15.83,71.89l2.31-3.65L29,75.16c2.68,1.71,5.25,1.18,6.91-1.43s1-5.09-1.69-6.81L23.34,60.05l2.31-3.66,11,6.91a8.71,8.71,0,0,1,2.81,12.64c-3,4.7-8.13,5.79-12.67,2.91Z"/><path d="M41.06,39.07l3.74-3.51L66,45.31l-3.47,3.25-5-2.32L50.9,52.45l2,5.13-3.45,3.24ZM53.5,44.34l-7-3.26,2.83,7.21Z"/><path d="M55.45,26.69,69.7,36.81l-3.93-17,4-2.68,5.11,22.61-4.44,3L51.5,29.34Z"/><path d="M97.81,16.58a11.1,11.1,0,1,1-20.43,8.7,10.93,10.93,0,0,1,5.82-14.8A10.88,10.88,0,0,1,97.81,16.58Zm-4,1.69c-1.62-3.81-5.43-5.51-9-4s-5.05,5.48-3.43,9.28,5.36,5.41,9,3.85A6.71,6.71,0,0,0,93.83,18.27Z"/><path d="M101.83,15.15l9-2.25,1,4-9,2.25Z"/><path d="M134.57,6.32l-3.71,1.77A5.23,5.23,0,0,0,125,4.17a6.57,6.57,0,0,0-5.91,7.41c.41,4.37,3.43,7.16,7.49,6.78a6.17,6.17,0,0,0,4-1.8,5.43,5.43,0,0,0,1.61-3.94l4.24.57c0,4.84-4.09,8.88-9.3,9.27a10.76,10.76,0,0,1-12.27-10.1c-.68-6.3,3.36-11.83,9.83-12.31C129.44-.4,133.37,2.15,134.57,6.32Z"/><path d="M147.89.31l5.1.48,6.73,22.35L155,22.69l-1.58-5.3-9-.85-2.51,4.91-4.7-.44Zm4.28,12.81L150,5.68l-3.54,6.9Z"/><path d="M167.49,2.89l5.3,1.57,4.94,16.75,4.17-14,4.15,1.23-6.17,20.72-4.73-1.41L169.9,10.05l-4.43,14.79-4.15-1.23Z"/><path d="M187.19,20.21l8.39,3.93-1.75,3.75L185.44,24Z"/><path d="M205.25,17.42l7,4.57c5,3.18,6.08,9.77,2.72,14.73-3.19,5-9.65,6.72-14.56,3.35l-7-4.57Zm-2.54,19c2.87,1.88,6.43,1,8.48-2.12s1.46-6.8-1.41-8.68l-3.3-2.16-7.08,10.8Z"/><path d="M234.18,54.8A11.11,11.11,0,1,1,218.3,39.27,11.11,11.11,0,1,1,234.18,54.8Zm-3.1-3c2.9-3,3-7.13.2-9.87s-7-2.56-9.89.4a6.78,6.78,0,1,0,9.69,9.47Z"/><path d="M250.52,58.4,260,74l-3.54,2.15-3.63-6L237.94,79.3l-2.25-3.69,14.93-9.09-3.63-6Z"/><path d="M262.55,79.05l1.57,4-7.91,3.09,3.6,9.18,7.91-3.1,1.57,4-20.13,7.88-1.58-4L256,96.86l-3.59-9.18L244,91l-1.58-4Z"/><path d="M270.69,102.14l1.05,4.19-21,5.27-1.05-4.2Z"/><path d="M260.47,116.67c-3,1-4.39,3.13-4,5.83s1.71,4,3.45,3.78c1.38-.18,2.08-1.74,2-5-.17-5.12,1.73-7.92,5.68-8.44,3.59-.47,6.5,2.48,7.09,7a8.32,8.32,0,0,1-1,5.42,7.53,7.53,0,0,1-4,3.45l-2.21-3.82c2.09-.87,3.27-2.58,3-4.51s-1.29-3.38-2.48-3.22c-1.35.17-1.93,1.22-1.83,4.07.15,5.68-1.59,8.81-5.63,9.34-4.23.55-7.58-2.4-8.25-7.52-.64-4.86,1.71-8.6,6.14-10.15Z"/></g></g></svg>